<svg width="85" height="93" viewBox="0 0 85 93" fill="none" xmlns="http://www.w3.org/2000/svg">
<path d="M42.6101 0.649994C41.1804 0.649994 39.7585 1.00937 38.4773 1.72812L4.7898 20.6578C2.2273 22.1031 0.610107 24.7984 0.610107 27.7203V65.5797C0.610107 68.5094 2.2273 71.2047 4.7898 72.65L38.4773 91.5719C41.0398 93.0172 44.1804 93.0172 46.7429 91.5719L80.4304 72.65C83.0007 71.2047 84.6101 68.5016 84.6101 65.5797V27.7203C84.6101 24.7984 82.9929 22.1031 80.4304 20.6578L46.7429 1.72812C45.4617 1.00937 44.0398 0.649994 42.6101 0.649994ZM42.6101 4.64999C43.3601 4.64999 44.1179 4.83749 44.7898 5.21249L78.4773 24.1422C79.8132 24.9 80.6101 26.2594 80.6101 27.7203V44.65H76.6101V40.65H72.6101V44.65H68.6101V48.65H72.6101V52.65H76.6101V48.65H80.6101V65.5797C80.6101 67.0406 79.8132 68.4 78.4695 69.1578L44.7898 88.0875C43.446 88.8375 41.7742 88.8375 40.4304 88.0875L6.75073 69.1578C5.40698 68.4 4.61011 67.0484 4.61011 65.5797V27.7203C4.61011 26.2594 5.40698 24.9 6.75073 24.1422L40.4304 5.21249C41.1023 4.83749 41.8601 4.64999 42.6101 4.64999ZM42.6101 20.65C28.2898 20.65 16.6101 32.3297 16.6101 46.65C16.6101 60.9703 28.2898 72.65 42.6101 72.65C50.7898 72.65 58.3835 68.8375 63.2898 62.3766L64.657 60.5719L52.5476 53.5562L51.4539 54.7437C49.196 57.2125 45.9929 58.65 42.6101 58.65C35.9773 58.65 30.6101 53.2828 30.6101 46.65C30.6101 40.0172 35.9773 34.65 42.6101 34.65C45.9929 34.65 49.196 36.0875 51.4539 38.5562L52.5476 39.7437L64.657 32.7281L63.2898 30.9234C58.3835 24.4625 50.7898 20.65 42.6101 20.65ZM42.6101 24.65C48.7585 24.65 54.3835 27.2828 58.5007 31.6734L53.0164 34.8453C50.1257 32.3141 46.532 30.65 42.6101 30.65C33.8054 30.65 26.6101 37.8453 26.6101 46.65C26.6101 55.4547 33.8054 62.65 42.6101 62.65C46.532 62.65 50.1257 60.9859 53.0164 58.4547L58.5007 61.6266C54.3835 66.0172 48.7585 68.65 42.6101 68.65C30.4617 68.65 20.6101 58.7984 20.6101 46.65C20.6101 34.5016 30.4617 24.65 42.6101 24.65ZM58.6101 40.65V44.65H54.6101V48.65H58.6101V52.65H62.6101V48.65H66.6101V44.65H62.6101V40.65H58.6101Z" fill="#00BBFF"/>
</svg>
