<svg width="76" height="85" viewBox="0 0 76 85" fill="none" xmlns="http://www.w3.org/2000/svg">
<path d="M37.8547 84.3022C37.711 84.3022 37.5688 84.2819 37.4313 84.2444L8.32973 76.0412C7.70786 75.8647 7.2563 75.3225 7.19692 74.6787L0.556295 1.82719C0.517233 1.38969 0.662546 0.95531 0.959421 0.631873C1.25473 0.306873 1.67348 0.122498 2.11255 0.122498H73.7922C74.2297 0.122498 74.6469 0.30531 74.9422 0.628747C75.2375 0.950622 75.386 1.38187 75.3485 1.81937L69.0985 74.6709C69.0438 75.3209 68.5875 75.8694 67.9594 76.0428L38.2719 84.2459C38.1344 84.2834 37.9954 84.3022 37.8547 84.3022ZM10.2125 73.3256L37.8594 81.1178L66.0797 73.3209L72.0891 3.2475H3.82505L10.2125 73.3256Z" fill="url(#paint0_linear_591_88)"/>
<path d="M38.05 7.935V76.685L61.8782 70.435L67.7375 7.935H38.05ZM62.0735 37.0366L60.3157 60.0834L40.7844 64.9662V56.7631L54.8469 52.8569L55.0422 46.0209L40.5891 48.1694V17.31H63.4407L62.8547 25.7084L47.8157 25.9037V38.5991L62.0735 37.0366Z" fill="url(#paint1_linear_591_88)"/>
<path d="M14.0266 59.3022V50.7084L28.0891 54.6147V17.31H34.925V65.1616L14.0266 59.3022Z" fill="url(#paint2_linear_591_88)"/>
<defs>
<linearGradient id="paint0_linear_591_88" x1="37.9516" y1="0.122498" x2="37.9516" y2="84.3022" gradientUnits="userSpaceOnUse">
<stop stop-color="#26E28B"/>
<stop offset="1" stop-color="#26E28B"/>
</linearGradient>
<linearGradient id="paint1_linear_591_88" x1="52.8938" y1="7.935" x2="52.8938" y2="76.685" gradientUnits="userSpaceOnUse">
<stop stop-color="#26E28B"/>
<stop offset="1" stop-color="#26E28B"/>
</linearGradient>
<linearGradient id="paint2_linear_591_88" x1="24.4766" y1="17.31" x2="24.4766" y2="65.1616" gradientUnits="userSpaceOnUse">
<stop stop-color="#26E28B"/>
<stop offset="1" stop-color="#26E28B"/>
</linearGradient>
</defs>
</svg>
