<svg width="100" height="100" viewBox="0 0 100 100" fill="none" xmlns="http://www.w3.org/2000/svg">
<path d="M45.4929 26.993C47.4259 26.993 48.9929 25.426 48.9929 23.493C48.9929 21.56 47.4259 19.993 45.4929 19.993C43.5599 19.993 41.9929 21.56 41.9929 23.493C41.9929 25.426 43.5599 26.993 45.4929 26.993Z" fill="#FFE100"/>
<path d="M54.5 80C56.433 80 58 78.433 58 76.5C58 74.567 56.433 73 54.5 73C52.567 73 51 74.567 51 76.5C51 78.433 52.567 80 54.5 80Z" fill="#FFE100"/>
<path d="M53.406 87H43.5C36.16 87 30.104 81.229 30 74.136V69.001L26.126 69.004C19.011 69.004 13 62.929 13 55.738V46C13 37.897 19.725 31.318 28.31 31.023L32 31.013V26.875C32 19.225 38.617 13 46.75 13H56.655C60.349 13 63.93 14.468 66.481 17.027C68.76 19.315 70.01 22.281 70 25.379V30.988L73.754 31.022C80.935 31.024 87 36.972 87 44.012V53.75C87 61.867 80.076 68.71 71.566 69.003L67.992 69.001L68 73.112C68 80.771 61.453 87 53.406 87ZM31 67C31.265 67 31.52 67.105 31.707 67.293C31.894 67.481 32 67.734 32 68V74.121C32.088 80.113 37.247 85 43.5 85H53.406C60.351 85 66 79.668 66 73.114L65.99 68.002C65.989 67.736 66.094 67.481 66.283 67.293C66.471 67.105 66.725 67 66.99 67L71.533 67.004C78.943 66.748 85 60.802 85 53.75V44.012C85 38.055 79.848 33.023 73.75 33.023C73.747 33.023 73.744 33.023 73.741 33.023L68.991 32.98C68.442 32.975 68 32.529 68 31.98V25.376C68.009 22.811 66.967 20.349 65.064 18.44C62.887 16.254 59.821 15 56.655 15H46.75C39.72 15 34 20.327 34 26.875V32.01C34 32.561 33.554 33.008 33.003 33.01L28.347 33.023C20.876 33.28 15 38.981 15 46V55.738C15 61.739 20.198 67.004 26.125 67.004L31 67Z" fill="#FFE100"/>
<path d="M52.375 33H32.875C32.599 33 32.375 32.776 32.375 32.5C32.375 32.224 32.599 32 32.875 32H52.375C52.651 32 52.875 32.224 52.875 32.5C52.875 32.776 52.651 33 52.375 33Z" fill="#FFE100"/>
<path d="M67 68H47.5C47.224 68 47 67.776 47 67.5C47 67.224 47.224 67 47.5 67H67C67.276 67 67.5 67.224 67.5 67.5C67.5 67.776 67.276 68 67 68Z" fill="#FFE100"/>
<path d="M67 65H54.5C54.224 65 54 64.776 54 64.5C54 64.224 54.224 64 54.5 64H67C67.276 64 67.5 64.224 67.5 64.5C67.5 64.776 67.276 65 67 65Z" fill="#FFE100"/>
<path d="M51.5 65H47.5C47.224 65 47 64.776 47 64.5C47 64.224 47.224 64 47.5 64H51.5C51.776 64 52 64.224 52 64.5C52 64.776 51.776 65 51.5 65Z" fill="#FFE100"/>
<path d="M45.5 36H33C32.724 36 32.5 35.776 32.5 35.5C32.5 35.224 32.724 35 33 35H45.5C45.776 35 46 35.224 46 35.5C46 35.776 45.776 36 45.5 36Z" fill="#FFE100"/>
<path d="M52.5 36H48.5C48.224 36 48 35.776 48 35.5C48 35.224 48.224 35 48.5 35H52.5C52.776 35 53 35.224 53 35.5C53 35.776 52.776 36 52.5 36Z" fill="#FFE100"/>
<path d="M68.112 42.125C68.068 42.125 68.022 42.119 67.977 42.106C67.711 42.032 67.556 41.756 67.63 41.49C67.876 40.612 68 39.699 68 38.774V32.125C68 31.849 68.224 31.625 68.5 31.625C68.776 31.625 69 31.849 69 32.125V38.774C69 39.79 68.863 40.794 68.594 41.759C68.532 41.98 68.331 42.125 68.112 42.125Z" fill="#FFE100"/>
<path d="M57.875 50C57.599 50 57.375 49.776 57.375 49.5C57.375 49.224 57.599 49 57.875 49C61.179 49 64.415 47.218 66.321 44.349C66.474 44.117 66.786 44.057 67.013 44.209C67.243 44.361 67.306 44.672 67.153 44.901C65.064 48.047 61.509 50 57.875 50Z" fill="#FFE100"/>
<path d="M55.875 50H53.25C52.974 50 52.75 49.776 52.75 49.5C52.75 49.224 52.974 49 53.25 49H55.875C56.151 49 56.375 49.224 56.375 49.5C56.375 49.776 56.151 50 55.875 50Z" fill="#FFE100"/>
<path d="M31.5 74.625C31.224 74.625 31 74.401 31 74.125V60.916C31.105 54.342 36.659 49 43.379 49H50.375C50.651 49 50.875 49.224 50.875 49.5C50.875 49.776 50.651 50 50.375 50H43.379C37.201 50 32.097 54.9 32 60.924V74.125C32 74.401 31.776 74.625 31.5 74.625Z" fill="#FFE100"/>
</svg>
